<?xml version="1.0" encoding="utf-8"?>
<!-- Generator: Adobe Illustrator 16.2.1, SVG Export Plug-In . SVG Version: 6.00 Build 0)  -->
<!DOCTYPE svg PUBLIC "-//W3C//DTD SVG 1.1//EN" "http://www.w3.org/Graphics/SVG/1.1/DTD/svg11.dtd">
<svg version="1.1" id="Layer_1" xmlns="http://www.w3.org/2000/svg" xmlns:xlink="http://www.w3.org/1999/xlink" x="0px" y="0px"
	 width="444px" height="71.6px" viewBox="0 0 444 71.6" style="enable-background:new 0 0 444 71.6;" xml:space="preserve">
<style type="text/css">
<![CDATA[
	.st0{fill:#EF7622;}
	.st1{fill:#FFFFFF;}
	.st2{fill:#3E8EDE;}
]]>
</style>
<g>
	<g id="FANDANGO_1_">
		<g>
			<path class="st2" d="M415.8,13.3c-13,0-22.7,9-22.7,21.9c0,12.9,9.7,21.9,22.7,21.9c13,0,22.6-9,22.6-21.9
				C438.4,22.3,428.8,13.3,415.8,13.3z M428.3,36c-0.2,3-1.4,5.6-3.3,7.7c-0.2,0.2-0.4,0.5-0.7,0.7c-2.2,2.1-5.2,3.4-8.5,3.4
				c-6.9,0-12.5-5.6-12.5-12.5c0-6.9,5.6-12.5,12.5-12.5c6.6,0,12,5.2,12.4,11.7V36z"/>
			<path class="st2" d="M368.6,32v9.6h9.5v3.3c-1.5,1.3-4.7,2.5-7.8,2.5c-6.9,0-11.8-5.3-11.8-12.3c0-7,4.9-12.3,11.8-12.3
				c4.1,0,7.4,2.6,9,5.4l9.1-4.8c-2.9-5.3-8.6-10.3-18.1-10.3c-12.6,0-22.9,8.4-22.9,21.9c0,13.5,10.3,21.9,22.9,21.9
				c7.2,0,12.9-2.6,17.2-6.7c0.1-0.1,0.2-0.2,0.3-0.3c0.7-0.8,1.2-1.8,1.2-2.9v-0.6V32H368.6z"/>
			<path class="st2" d="M336.6,14h-0.8c-2.4,0.2-4.2,2.1-4.3,4.5v0.4v18.4L314.4,14h-11.2v42.4H314V31.9l17.9,24.5h10.5V14H336.6z"
				/>
			<path class="st2" d="M283,14h-13.8l-15.9,42.4h12.4l2.1-6.1h16.7l1.1,3.2l0,0c0.7,1.6,2.2,2.8,4.1,2.9h0.6h8.7L283,14z
				 M270.8,40.7l5.4-15.9l5.3,15.9H270.8z"/>
			<path class="st2" d="M231.7,14h-17.8v37.3v0.6c0.2,2.4,2.1,4.4,4.6,4.4h0.3h13c13.3,0,22.9-8.1,22.9-21.2
				C254.6,22,245,14,231.7,14z M231.7,46.8h-6.9V23.5h6.9c7.7,0,11.7,5.1,11.7,11.6C243.4,41.4,239.1,46.8,231.7,46.8z"/>
			<path class="st2" d="M200.4,14h-0.6c-2.4,0.1-4.3,2-4.4,4.4V19v18.3L178.3,14h-11.2v42.4H178V31.9l17.9,24.5h10.5V14H200.4z"/>
			<path class="st2" d="M147.2,14h-14.1l-15.9,42.4h12.7l2.1-6.1h16.7l1.1,3.2l0,0c0.7,1.6,2.2,2.8,4.1,2.9h0.6h8.7L147.2,14z
				 M134.9,40.7l5.4-15.9l5.3,15.9H134.9z"/>
			<path class="st2" d="M121.4,23.2v-9.4H88.9v42.4l11.6,0V41.2l10.5,0h1c2-0.2,3.5-1.9,3.6-3.9v-0.5v-5.2h-15.1v-8.5H121.4z"/>
		</g>
	</g>
</g>
<g>
	<path id="Logo_1_" class="st0" d="M62.3,19.8L56.9-0.3L0.4,14.8l5.4,20.1l0,0c3.4,0.7,6.3,3.2,7.2,6.8c1,3.6-0.3,7.2-2.9,9.5l0,0
		l5.4,20.1L72,56.2l-5.4-20.1c-3.4-0.7-6.3-3.2-7.2-6.8C58.4,25.7,59.7,22.1,62.3,19.8z M41.2,20.5L24.4,25l3.4,12.6l16.8-4.5
		l3.4,12.6l-16.8,4.5l3.4,12.6l-16.8,4.5l-4.1-15.3c2.5-3,3.5-7.1,2.4-11.2c-1.1-4-4-7.1-7.7-8.5L4.2,16.9l33.6-9L41.2,20.5z"/>
	<path class="st1" d="M41.2,20.5L24.4,25l3.4,12.6l16.8-4.5l3.4,12.6l-16.8,4.5l3.4,12.6l-16.8,4.5l-4.1-15.3
		c2.5-3,3.5-7.1,2.4-11.2c-1.1-4-4-7.1-7.7-8.5L4.2,16.9l33.6-9L41.2,20.5z"/>
</g>
<g>
	<path class="st2" d="M444.4,15.5c0,0.6-0.2,1.1-0.6,1.5c-0.4,0.4-0.9,0.6-1.5,0.6c-0.6,0-1.1-0.2-1.5-0.6c-0.4-0.4-0.6-0.9-0.6-1.5
		c0-0.6,0.2-1.1,0.6-1.5c0.4-0.4,0.9-0.6,1.5-0.6c0.6,0,1.1,0.2,1.5,0.6C444.2,14.4,444.4,14.9,444.4,15.5z M444.1,15.5
		c0-0.5-0.2-1-0.5-1.3c-0.4-0.4-0.8-0.5-1.3-0.5s-1,0.2-1.3,0.5c-0.4,0.4-0.5,0.8-0.5,1.3c0,0.5,0.2,1,0.5,1.3s0.8,0.6,1.3,0.6
		s1-0.2,1.3-0.6C443.9,16.5,444.1,16,444.1,15.5z M443.5,16.6h-0.6l-0.7-0.9h-0.3v0.9h-0.4v-2.3h0.7c0.2,0,0.3,0,0.4,0
		c0.1,0,0.2,0,0.3,0.1c0.1,0.1,0.2,0.1,0.2,0.2c0,0.1,0.1,0.2,0.1,0.3c0,0.2,0,0.3-0.1,0.4c-0.1,0.1-0.2,0.2-0.4,0.3L443.5,16.6z
		 M442.7,15c0-0.1,0-0.1,0-0.2c0,0-0.1-0.1-0.1-0.1c0,0-0.1,0-0.1-0.1c-0.1,0-0.1,0-0.2,0h-0.3v0.8h0.2c0.1,0,0.2,0,0.2,0
		c0.1,0,0.1,0,0.2-0.1c0,0,0.1-0.1,0.1-0.1C442.7,15.1,442.7,15.1,442.7,15z"/>
</g>
</svg>
